<svg xmlns="http://www.w3.org/2000/svg" width="21.745" height="27.956" viewBox="0 0 21.745 27.956">
  <g id="bag" transform="translate(-49.763 0)">
    <g id="bag-2" data-name="bag" transform="translate(49.763 0)">
      <path id="Pfad_98665" data-name="Pfad 98665" d="M70.614,8.926a1,1,0,0,0-1-.939H65.622v-3a4.992,4.992,0,0,0-9.984,0v3H51.644a1,1,0,0,0-1,.939l-.879,15.865a3,3,0,0,0,2.821,3.16q.087,0,.175,0H68.508a3,3,0,0,0,3-2.99q0-.087,0-.175ZM57.635,4.992a3,3,0,0,1,5.99,0v3h-5.99Z" transform="translate(-49.763 0)"/>
    </g>
  </g>
</svg>
