<svg xmlns="http://www.w3.org/2000/svg" width="22.765" height="29.979" viewBox="0 0 22.765 29.979">
  <g id="Gruppe_26086" data-name="Gruppe 26086" transform="translate(-296.366 107.403)">
    <path id="Differenzmenge_1" data-name="Differenzmenge 1" d="M11.355,25.576a13.01,13.01,0,0,1-7.844-2.6,17.365,17.365,0,0,1-1.326-1.153,10.993,10.993,0,0,1-1.327-1.5,11.569,11.569,0,0,1-.779-1.154.605.605,0,0,1-.029-.547,7.126,7.126,0,0,1,.663-1.211A8.145,8.145,0,0,1,6.4,13.841a.927.927,0,0,1,.184-.018,1.11,1.11,0,0,1,.652.22,7.041,7.041,0,0,0,8.3,0,1.16,1.16,0,0,1,.694-.209c.047,0,.1,0,.142.007a8.247,8.247,0,0,1,5.68,3.575,6.065,6.065,0,0,1,.663,1.211.489.489,0,0,1-.086.547,10.055,10.055,0,0,1-.779,1.154,13.354,13.354,0,0,1-1.327,1.5A12.616,12.616,0,0,1,19.2,22.981,13.008,13.008,0,0,1,11.355,25.576Zm.028-12.226a6.61,6.61,0,0,1-6.6-6.6A6.514,6.514,0,0,1,5.383,4h12a6.513,6.513,0,0,1,.6,2.748A6.611,6.611,0,0,1,11.383,13.351Z" transform="translate(296.366 -103)"/>
    <g id="hat" transform="translate(299.334 -225.043)">
      <path id="Pfad_98735" data-name="Pfad 98735" d="M96.812,123.6c-.133-.621-.326-1.418-.585-2.222a10.116,10.116,0,0,0-1.082-2.424,2.428,2.428,0,0,0-1.972-1.314,1.628,1.628,0,0,0-1.515.752,2.137,2.137,0,0,1-.134.172l-.006.006a.467.467,0,0,1-.655,0l0-.005a2.147,2.147,0,0,1-.134-.173,1.628,1.628,0,0,0-1.515-.752,2.428,2.428,0,0,0-1.972,1.314,10.116,10.116,0,0,0-1.082,2.424c-.257.8-.45,1.592-.583,2.212Z" transform="translate(-82.76)"/>
      <path id="Pfad_98736" data-name="Pfad 98736" d="M14.978,338.126l-13.13-.011a1.919,1.919,0,0,1-1.828-1.321.443.443,0,0,1,.425-.58l15.939.014a.443.443,0,0,1,.424.58A1.918,1.918,0,0,1,14.978,338.126Z" transform="translate(0 -211.39)"/>
    </g>
  </g>
</svg>
